<svg aria-hidden="true" style="width:0;height:0;position:absolute;overflow:hidden" xmlns="http://www.w3.org/2000/svg"><defs><symbol id="icon-mail" viewBox="0 0 32 32"><path d="M7 5.333h18a4.334 4.334 0 0 1 4.327 4.087l.007.246v12.667a4.334 4.334 0 0 1-4.087 4.327l-.246.007h-18a4.333 4.333 0 0 1-4.326-4.087l-.007-.246V9.667a4.333 4.333 0 0 1 4.087-4.326l.246-.007zm20.333 7.164-10.868 5.721c-.25.131-.542.15-.803.056l-.128-.056-10.868-5.72v9.835c0 1.224.943 2.228 2.142 2.326l.191.008h18a2.335 2.335 0 0 0 2.326-2.142l.008-.191v-9.836zM25 7.333H7a2.335 2.335 0 0 0-2.326 2.142l-.008.191v.572l11.333 5.965 11.333-5.966v-.571A2.335 2.335 0 0 0 25.19 7.34l-.191-.008z"/></symbol><symbol id="icon-phone" viewBox="0 0 32 32"><path d="M22 27.999c-9.925 0-18-8.075-18-18a7.028 7.028 0 0 1 6.113-6.95 2.034 2.034 0 0 1 2.088 1.2l2.513 5.863A1.985 1.985 0 0 1 14.539 12l-2.075 3.175a9.566 9.566 0 0 0 4.4 4.375l3.137-2.088a1.958 1.958 0 0 1 1.888-.163l5.863 2.5a2.031 2.031 0 0 1 1.2 2.087 7.029 7.029 0 0 1-6.95 6.113zM10.363 5.036A5.003 5.003 0 0 0 6 9.999a16.012 16.012 0 0 0 16 16 5.002 5.002 0 0 0 4.963-4.363l-5.863-2.5-3.125 2.087a1.997 1.997 0 0 1-1.962.138 11.56 11.56 0 0 1-5.35-5.325 1.999 1.999 0 0 1 .125-1.963l2.088-3.175-2.513-5.862z"/></symbol><symbol id="icon-location" viewBox="0 0 28 32"><path d="M5.101 4.99c5.038-5.038 13.205-5.038 18.243 0s5.038 13.205 0 18.243l-1.758 1.739a958.133 958.133 0 0 1-5.046 4.907 3.334 3.334 0 0 1-4.634 0l-5.172-5.031c-.65-.638-1.194-1.176-1.632-1.615-5.038-5.038-5.038-13.205 0-18.243zm16.672 1.571c-4.17-4.17-10.93-4.17-15.1 0s-4.17 10.93 0 15.1l2.203 2.174c1.213 1.187 2.738 2.669 4.575 4.445a1.11 1.11 0 0 0 1.545 0l5.03-4.891c.695-.682 1.277-1.258 1.748-1.729 4.17-4.17 4.17-10.931 0-15.1zm-7.55 3.511a4.447 4.447 0 1 1 0 8.894 4.447 4.447 0 0 1 0-8.894zm0 2.223a2.224 2.224 0 1 0 0 4.448 2.224 2.224 0 0 0 0-4.448z"/></symbol><symbol id="icon-close-one" viewBox="0 0 32 32"><path d="m26.667 7.303-1.97-1.97-7.808 7.808-7.808-7.808-1.97 1.97 7.808 7.808-7.808 7.808 1.97 1.97 7.808-7.808 7.808 7.808 1.97-1.97-7.808-7.808 7.808-7.808z"/></symbol><symbol id="icon-close-two" viewBox="0 0 32 32"><path d="M32 3.223 28.777 0 16 12.777 3.223 0 0 3.223 12.777 16 0 28.777 3.223 32 16 19.223 28.777 32 32 28.777 19.223 16 32 3.223z"/></symbol><symbol id="icon-close-three" viewBox="0 0 32 32"><path d="M32 3.223 28.777 0 16 12.777 3.223 0 0 3.223 12.777 16 0 28.777 3.223 32 16 19.223 28.777 32 32 28.777 19.223 16 32 3.223z"/></symbol><symbol id="icon-close-four" viewBox="0 0 32 32"><path d="M32 16c0 8.837-7.163 16-16 16S0 24.837 0 16 7.163 0 16 0s16 7.163 16 16z"/><path d="M22.4 10.782 21.218 9.6l-4.685 4.685L11.848 9.6l-1.182 1.182 4.685 4.685-4.685 4.685 1.182 1.182 4.685-4.685 4.685 4.685 1.182-1.182-4.685-4.685 4.685-4.685z"/></symbol><symbol id="icon-close-five" viewBox="0 0 32 32"><path d="M32 3.223 28.777 0 16 12.777 3.223 0 0 3.223 12.777 16 0 28.777 3.223 32 16 19.223 28.777 32 32 28.777 19.223 16 32 3.223z"/></symbol><symbol id="icon-github" viewBox="0 0 32 32"><path d="M16 0C7.212 0 0 7.212 0 16c0 7.499 5.262 14.312 12.25 16v-5.293c-.692.152-1.33.156-2.034-.052-.946-.279-1.714-.909-2.284-1.869-.364-.613-1.008-1.278-1.68-1.23l-.165-1.868c1.453-.124 2.711.886 3.457 2.14.332.558.713.884 1.203 1.029.473.14.982.072 1.574-.137.149-1.186.692-1.63 1.102-2.255v-.001c-4.167-.622-5.828-2.832-6.488-4.578-.874-2.317-.405-5.212 1.14-7.041.03-.036.084-.129.063-.194-.708-2.139.155-3.909.187-4.097.817.242.95-.243 3.551 1.337l.449.27c.188.112.129.048.317.034A13.544 13.544 0 0 1 16 7.723c1.136.015 2.273.178 3.404.484l.145.015c-.013-.002.04-.009.127-.062 3.248-1.968 3.132-1.324 4.003-1.608.032.188.883 1.987.182 4.099-.095.291 2.816 2.956 1.203 7.235-.659 1.746-2.32 3.957-6.487 4.578v.001c.534.814 1.176 1.247 1.173 2.927V32C26.738 30.312 32 23.499 32 16c0-8.788-7.212-16-16-16z"/></symbol><symbol id="icon-linkedin" viewBox="0 0 32 32"><path d="M31.992 32v-.001H32V20.263c0-5.741-1.236-10.164-7.948-10.164-3.227 0-5.392 1.771-6.276 3.449h-.093v-2.913h-6.364v21.364h6.627V21.42c0-2.785.528-5.479 3.977-5.479 3.399 0 3.449 3.179 3.449 5.657v10.401h6.62zM.528 10.636h6.635V32H.528V10.636zM3.843 0C1.722 0 0 1.721 0 3.843s1.721 3.879 3.843 3.879c2.121 0 3.843-1.757 3.843-3.879A3.846 3.846 0 0 0 3.843 0z"/></symbol><symbol id="icon-pictures" viewBox="0 0 33 32"><path d="m26.604 29.587-2.624-.72-.006-7.258 2.51.706 3.619-13.509-18.332-4.912L10.563 8.4H8.495l1.863-6.952 22.193 5.946-5.947 22.193zM23.039 32H0V9.023h23.039V32zm-1.998-20.979H1.998v13.985h19.043V11.021zM7.849 20.993l2.283-3.692 2.283 2.301 3.139-4.727 3.283 8.134H4.281l1.855-3.71 1.713 1.694zm-1.365-3.907a1.498 1.498 0 1 1-.002-2.996 1.498 1.498 0 0 1 .002 2.996z"/></symbol><symbol id="icon-magnifier" viewBox="0 0 32 32"><path d="m29.156 29.961-.709.709a2.006 2.006 0 0 1-2.838 0l-5.676-5.674c-.656-.658-.729-1.644-.281-2.412l-3.104-3.102a9.975 9.975 0 0 1-5.965 1.979C5.043 21.461.552 16.97.552 11.43S5.043 1.398 10.583 1.398c5.541 0 10.031 4.491 10.031 10.032 0 2.579-.98 4.923-2.58 6.7l3.035 3.035c.768-.447 1.754-.375 2.41.283l5.676 5.674c.784.785.784 2.056.001 2.839zM18.088 11.389c0-4.155-3.369-7.523-7.524-7.523a7.523 7.523 0 1 0-.001 15.046 7.525 7.525 0 0 0 7.525-7.523z"/></symbol><symbol id="icon-mail" viewBox="0 0 32 32"><path d="M7 5.333h18a4.334 4.334 0 0 1 4.327 4.087l.007.246v12.667a4.334 4.334 0 0 1-4.087 4.327l-.246.007h-18a4.333 4.333 0 0 1-4.326-4.087l-.007-.246V9.667a4.333 4.333 0 0 1 4.087-4.326l.246-.007zm20.333 7.164-10.868 5.721c-.25.131-.542.15-.803.056l-.128-.056-10.868-5.72v9.835c0 1.224.943 2.228 2.142 2.326l.191.008h18a2.335 2.335 0 0 0 2.326-2.142l.008-.191v-9.836zM25 7.333H7a2.335 2.335 0 0 0-2.326 2.142l-.008.191v.572l11.333 5.965 11.333-5.966v-.571A2.335 2.335 0 0 0 25.19 7.34l-.191-.008z"/></symbol><symbol id="icon-phone" viewBox="0 0 32 32"><path d="M22 27.999c-9.925 0-18-8.075-18-18a7.028 7.028 0 0 1 6.113-6.95 2.034 2.034 0 0 1 2.088 1.2l2.513 5.863A1.985 1.985 0 0 1 14.539 12l-2.075 3.175a9.566 9.566 0 0 0 4.4 4.375l3.137-2.088a1.958 1.958 0 0 1 1.888-.163l5.863 2.5a2.031 2.031 0 0 1 1.2 2.087 7.029 7.029 0 0 1-6.95 6.113zM10.363 5.036A5.003 5.003 0 0 0 6 9.999a16.012 16.012 0 0 0 16 16 5.002 5.002 0 0 0 4.963-4.363l-5.863-2.5-3.125 2.087a1.997 1.997 0 0 1-1.962.138 11.56 11.56 0 0 1-5.35-5.325 1.999 1.999 0 0 1 .125-1.963l2.088-3.175-2.513-5.862z"/></symbol><symbol id="icon-location" viewBox="0 0 28 32"><path d="M5.101 4.99c5.038-5.038 13.205-5.038 18.243 0s5.038 13.205 0 18.243l-1.758 1.739a958.133 958.133 0 0 1-5.046 4.907 3.334 3.334 0 0 1-4.634 0l-5.172-5.031c-.65-.638-1.194-1.176-1.632-1.615-5.038-5.038-5.038-13.205 0-18.243zm16.672 1.571c-4.17-4.17-10.93-4.17-15.1 0s-4.17 10.93 0 15.1l2.203 2.174c1.213 1.187 2.738 2.669 4.575 4.445a1.11 1.11 0 0 0 1.545 0l5.03-4.891c.695-.682 1.277-1.258 1.748-1.729 4.17-4.17 4.17-10.931 0-15.1zm-7.55 3.511a4.447 4.447 0 1 1 0 8.894 4.447 4.447 0 0 1 0-8.894zm0 2.223a2.224 2.224 0 1 0 0 4.448 2.224 2.224 0 0 0 0-4.448z"/></symbol></defs></svg>