<svg aria-hidden="true" style="position: absolute; width: 0; height: 0; overflow: hidden;" version="1.1" xmlns="http://www.w3.org/2000/svg" xmlns:xlink="http://www.w3.org/1999/xlink">
<defs>
<symbol id="icon-mail" viewBox="0 0 32 32">
<path d="M7 5.333h18c2.311 0 4.199 1.809 4.327 4.087l0.007 0.246v12.667c0 2.311-1.809 4.199-4.087 4.327l-0.246 0.007h-18c-2.311 0-4.199-1.809-4.326-4.087l-0.007-0.246v-12.667c0-2.311 1.809-4.199 4.087-4.326l0.246-0.007zM27.333 12.497l-10.868 5.721c-0.25 0.131-0.542 0.15-0.803 0.056l-0.128-0.056-10.868-5.72v9.835c0 1.224 0.943 2.228 2.142 2.326l0.191 0.008h18c1.224 0 2.228-0.943 2.326-2.142l0.008-0.191v-9.836zM25 7.333h-18c-1.224 0-2.228 0.943-2.326 2.142l-0.008 0.191v0.572l11.333 5.965 11.333-5.966v-0.571c0-1.224-0.943-2.228-2.142-2.326l-0.191-0.008z"></path>
</symbol>
<symbol id="icon-phone" viewBox="0 0 32 32">
<path d="M22 27.999c-9.925 0-18-8.075-18-18 0.004-1.702 0.626-3.346 1.75-4.624s2.675-2.105 4.363-2.326c0.43-0.048 0.865 0.043 1.24 0.259s0.672 0.546 0.848 0.941l2.513 5.863c0.13 0.304 0.183 0.636 0.152 0.966s-0.143 0.646-0.327 0.922l-2.075 3.175c0.94 1.907 2.488 3.446 4.4 4.375l3.137-2.088c0.275-0.185 0.592-0.297 0.923-0.326s0.662 0.028 0.965 0.163l5.863 2.5c0.396 0.175 0.726 0.472 0.941 0.847s0.306 0.81 0.259 1.24c-0.221 1.688-1.048 3.238-2.326 4.363s-2.921 1.746-4.624 1.75zM10.363 5.036c-1.206 0.155-2.315 0.745-3.118 1.658s-1.246 2.088-1.245 3.305c0.003 4.242 1.69 8.31 4.69 11.31s7.068 4.687 11.31 4.69c1.216 0.001 2.391-0.442 3.305-1.245s1.503-1.911 1.658-3.118l-5.863-2.5-3.125 2.087c-0.287 0.19-0.619 0.303-0.963 0.327s-0.688-0.041-0.999-0.189c-2.329-1.127-4.213-3.001-5.35-5.325-0.15-0.31-0.217-0.654-0.195-0.998s0.132-0.676 0.32-0.965l2.088-3.175-2.513-5.862z"></path>
</symbol>
<symbol id="icon-location" viewBox="0 0 28 32">
<path d="M5.101 4.99c5.038-5.038 13.205-5.038 18.243 0s5.038 13.205 0 18.243l-1.758 1.739c-1.296 1.272-2.978 2.908-5.046 4.907-1.292 1.249-3.342 1.249-4.634-0l-5.172-5.031c-0.65-0.638-1.194-1.176-1.632-1.615-5.038-5.038-5.038-13.205 0-18.243zM21.773 6.561c-4.17-4.17-10.93-4.17-15.1 0s-4.17 10.93 0 15.1l2.203 2.174c1.213 1.187 2.738 2.669 4.575 4.445 0.431 0.417 1.114 0.417 1.545 0l5.030-4.891c0.695-0.682 1.277-1.258 1.748-1.729 4.17-4.17 4.17-10.931 0-15.1zM14.223 10.072c2.456 0 4.447 1.991 4.447 4.447s-1.991 4.447-4.447 4.447c-2.456 0-4.447-1.991-4.447-4.447s1.991-4.447 4.447-4.447zM14.223 12.295c-1.229 0-2.224 0.996-2.224 2.225s0.996 2.224 2.224 2.224c1.229 0 2.225-0.996 2.225-2.224s-0.996-2.225-2.225-2.225z"></path>
</symbol>
<symbol id="icon-close-one" viewBox="0 0 32 32">
<path d="M26.667 7.303l-1.97-1.97-7.808 7.808-7.808-7.808-1.97 1.97 7.808 7.808-7.808 7.808 1.97 1.97 7.808-7.808 7.808 7.808 1.97-1.97-7.808-7.808 7.808-7.808z"></path>
</symbol>
<symbol id="icon-close-two" viewBox="0 0 32 32">
<path d="M32 3.223l-3.223-3.223-12.777 12.777-12.777-12.777-3.223 3.223 12.777 12.777-12.777 12.777 3.223 3.223 12.777-12.777 12.777 12.777 3.223-3.223-12.777-12.777 12.777-12.777z"></path>
</symbol>
<symbol id="icon-close-three" viewBox="0 0 32 32">
<path d="M32 3.223l-3.223-3.223-12.777 12.777-12.777-12.777-3.223 3.223 12.777 12.777-12.777 12.777 3.223 3.223 12.777-12.777 12.777 12.777 3.223-3.223-12.777-12.777 12.777-12.777z"></path>
</symbol>
<symbol id="icon-close-four" viewBox="0 0 32 32">
<path d="M32 16c0 8.837-7.163 16-16 16s-16-7.163-16-16c0-8.837 7.163-16 16-16s16 7.163 16 16z"></path>
<path d="M22.4 10.782l-1.182-1.182-4.685 4.685-4.685-4.685-1.182 1.182 4.685 4.685-4.685 4.685 1.182 1.182 4.685-4.685 4.685 4.685 1.182-1.182-4.685-4.685 4.685-4.685z"></path>
</symbol>
<symbol id="icon-close-five" viewBox="0 0 32 32">
<path d="M32 3.223l-3.223-3.223-12.777 12.777-12.777-12.777-3.223 3.223 12.777 12.777-12.777 12.777 3.223 3.223 12.777-12.777 12.777 12.777 3.223-3.223-12.777-12.777 12.777-12.777z"></path>
</symbol>


<symbol id="icon-github" viewBox="0 0 32 32">
<path d="M16 0c-8.788 0-16 7.212-16 16 0 7.499 5.262 14.312 12.25 16v-5.293c-0.692 0.152-1.33 0.156-2.034-0.052-0.946-0.279-1.714-0.909-2.284-1.869-0.364-0.613-1.008-1.278-1.68-1.23l-0.165-1.868c1.453-0.124 2.711 0.886 3.457 2.14 0.332 0.558 0.713 0.884 1.203 1.029 0.473 0.14 0.982 0.072 1.574-0.137 0.149-1.186 0.692-1.63 1.102-2.255v-0.001c-4.167-0.622-5.828-2.832-6.488-4.578-0.874-2.317-0.405-5.212 1.14-7.041 0.030-0.036 0.084-0.129 0.063-0.194-0.708-2.139 0.155-3.909 0.187-4.097 0.817 0.242 0.95-0.243 3.551 1.337l0.449 0.27c0.188 0.112 0.129 0.048 0.317 0.034 1.086-0.295 2.23-0.458 3.358-0.472 1.136 0.015 2.273 0.178 3.404 0.484l0.145 0.015c-0.013-0.002 0.040-0.009 0.127-0.062 3.248-1.968 3.132-1.324 4.003-1.608 0.032 0.188 0.883 1.987 0.182 4.099-0.095 0.291 2.816 2.956 1.203 7.235-0.659 1.746-2.32 3.957-6.487 4.578v0.001c0.534 0.814 1.176 1.247 1.173 2.927v6.608c6.988-1.688 12.25-8.501 12.25-16 0-8.788-7.212-16-16-16v0z"></path>
</symbol>
<symbol id="icon-linkedin" viewBox="0 0 32 32">
<path d="M31.992 32v-0.001h0.008v-11.736c0-5.741-1.236-10.164-7.948-10.164-3.227 0-5.392 1.771-6.276 3.449h-0.093v-2.913h-6.364v21.364h6.627v-10.579c0-2.785 0.528-5.479 3.977-5.479 3.399 0 3.449 3.179 3.449 5.657v10.401h6.62z"></path>
<path d="M0.528 10.636h6.635v21.364h-6.635v-21.364z"></path>
<path d="M3.843 0c-2.121 0-3.843 1.721-3.843 3.843s1.721 3.879 3.843 3.879c2.121 0 3.843-1.757 3.843-3.879-0.001-2.121-1.723-3.843-3.843-3.843v0z"></path>
</symbol>

<symbol id="icon-pictures" viewBox="0 0 33 32">
<path d="M26.604 29.587l-2.624-0.72-0.006-7.258 2.51 0.706 3.619-13.509-18.332-4.912-1.208 4.506h-2.068l1.863-6.952 22.193 5.946-5.947 22.193zM23.039 32h-23.039v-22.977h23.039v22.977zM21.041 11.021h-19.043v13.985h19.043v-13.985zM7.849 20.993l2.283-3.692 2.283 2.301 3.139-4.727 3.283 8.134h-14.556l1.855-3.71 1.713 1.694zM6.484 17.086c-0.828 0-1.499-0.67-1.499-1.498s0.671-1.498 1.499-1.498 1.498 0.67 1.498 1.498-0.67 1.498-1.498 1.498z"></path>
</symbol>

<symbol id="icon-magnifier" viewBox="0 0 32 32">
<path d="M29.156 29.961l-0.709 0.709c-0.785 0.784-2.055 0.784-2.838 0l-5.676-5.674c-0.656-0.658-0.729-1.644-0.281-2.412l-3.104-3.102c-1.669 1.238-3.728 1.979-5.965 1.979-5.54 0-10.031-4.491-10.031-10.031s4.491-10.032 10.031-10.032c5.541 0 10.031 4.491 10.031 10.032 0 2.579-0.98 4.923-2.58 6.7l3.035 3.035c0.768-0.447 1.754-0.375 2.41 0.283l5.676 5.674c0.784 0.785 0.784 2.056 0.001 2.839zM18.088 11.389c0-4.155-3.369-7.523-7.524-7.523s-7.524 3.367-7.524 7.523 3.368 7.523 7.523 7.523 7.525-3.368 7.525-7.523z"></path>
</symbol>
<symbol id="icon-mail" viewBox="0 0 32 32">
<path d="M7 5.333h18c2.311 0 4.199 1.809 4.327 4.087l0.007 0.246v12.667c0 2.311-1.809 4.199-4.087 4.327l-0.246 0.007h-18c-2.311 0-4.199-1.809-4.326-4.087l-0.007-0.246v-12.667c0-2.311 1.809-4.199 4.087-4.326l0.246-0.007zM27.333 12.497l-10.868 5.721c-0.25 0.131-0.542 0.15-0.803 0.056l-0.128-0.056-10.868-5.72v9.835c0 1.224 0.943 2.228 2.142 2.326l0.191 0.008h18c1.224 0 2.228-0.943 2.326-2.142l0.008-0.191v-9.836zM25 7.333h-18c-1.224 0-2.228 0.943-2.326 2.142l-0.008 0.191v0.572l11.333 5.965 11.333-5.966v-0.571c0-1.224-0.943-2.228-2.142-2.326l-0.191-0.008z"></path>
</symbol>
<symbol id="icon-phone" viewBox="0 0 32 32">
<path d="M22 27.999c-9.925 0-18-8.075-18-18 0.004-1.702 0.626-3.346 1.75-4.624s2.675-2.105 4.363-2.326c0.43-0.048 0.865 0.043 1.24 0.259s0.672 0.546 0.848 0.941l2.513 5.863c0.13 0.304 0.183 0.636 0.152 0.966s-0.143 0.646-0.327 0.922l-2.075 3.175c0.94 1.907 2.488 3.446 4.4 4.375l3.137-2.088c0.275-0.185 0.592-0.297 0.923-0.326s0.662 0.028 0.965 0.163l5.863 2.5c0.396 0.175 0.726 0.472 0.941 0.847s0.306 0.81 0.259 1.24c-0.221 1.688-1.048 3.238-2.326 4.363s-2.921 1.746-4.624 1.75zM10.363 5.036c-1.206 0.155-2.315 0.745-3.118 1.658s-1.246 2.088-1.245 3.305c0.003 4.242 1.69 8.31 4.69 11.31s7.068 4.687 11.31 4.69c1.216 0.001 2.391-0.442 3.305-1.245s1.503-1.911 1.658-3.118l-5.863-2.5-3.125 2.087c-0.287 0.19-0.619 0.303-0.963 0.327s-0.688-0.041-0.999-0.189c-2.329-1.127-4.213-3.001-5.35-5.325-0.15-0.31-0.217-0.654-0.195-0.998s0.132-0.676 0.32-0.965l2.088-3.175-2.513-5.862z"></path>
</symbol>
<symbol id="icon-location" viewBox="0 0 28 32">
<path d="M5.101 4.99c5.038-5.038 13.205-5.038 18.243 0s5.038 13.205 0 18.243l-1.758 1.739c-1.296 1.272-2.978 2.908-5.046 4.907-1.292 1.249-3.342 1.249-4.634-0l-5.172-5.031c-0.65-0.638-1.194-1.176-1.632-1.615-5.038-5.038-5.038-13.205 0-18.243zM21.773 6.561c-4.17-4.17-10.93-4.17-15.1 0s-4.17 10.93 0 15.1l2.203 2.174c1.213 1.187 2.738 2.669 4.575 4.445 0.431 0.417 1.114 0.417 1.545 0l5.030-4.891c0.695-0.682 1.277-1.258 1.748-1.729 4.17-4.17 4.17-10.931 0-15.1zM14.223 10.072c2.456 0 4.447 1.991 4.447 4.447s-1.991 4.447-4.447 4.447c-2.456 0-4.447-1.991-4.447-4.447s1.991-4.447 4.447-4.447zM14.223 12.295c-1.229 0-2.224 0.996-2.224 2.225s0.996 2.224 2.224 2.224c1.229 0 2.225-0.996 2.225-2.224s-0.996-2.225-2.225-2.225z"></path>
</symbol>
</defs>
</svg>
